# xmcd
#
# Track frame offsets: 
#        150
#        47625
#        75805
#        99692
#        129662
#        149794
#        177934
#        228058
#        258421
#        290041
#        319033
#
# Disc length: 4752 seconds
#
# Revision: 2
# Processed by: cddbd v1.5.2PL0 Copyright (c) Steve Scherf et al.
# Submitted via: ExactAudioCopyFreeDBPlugin 1.0
#
DISCID=98128e0b
DTITLE=Raz, Dwa, Trzy - 20 lat - CD-02
DYEAR=2010
DGENRE=pop
TTITLE0=Jestem tylko przechodniem
TTITLE1=Tylko nie plyn ta rzeka
TTITLE2=Amulet
TTITLE3=Jeszcze dlugo w noc
TTITLE4=Sufit
TTITLE5=Pod niebem pelnym cudow
TTITLE6=W wielkim miescie
TTITLE7=Czekam i wiem
TTITLE8=Nikt nikogo (I tak warto zyc)
TTITLE9=Talerzyk
TTITLE10=Idz swoja droga
EXTD=
EXTT0=
EXTT1=
EXTT2=
EXTT3=
EXTT4=
EXTT5=
EXTT6=
EXTT7=
EXTT8=
EXTT9=
EXTT10=
PLAYORDER=
